<svg version="1.1" id="Layer_1" xmlns="http://www.w3.org/2000/svg" xmlns:xlink="http://www.w3.org/1999/xlink" x="0px" y="0px"
	 width="100%" viewBox="0 0 512 512" enable-background="new 0 0 512 512" xml:space="preserve">
<path fill="#000000" opacity="1.000000" stroke="none" 
	d="
M513.000000,196.000000 
	C513.000000,301.974243 513.000000,407.448486 513.000000,512.961365 
	C342.400757,512.961365 171.801483,512.961365 1.101111,512.961365 
	C1.101111,342.442444 1.101111,171.884827 1.101111,1.163595 
	C171.666534,1.163595 342.333252,1.163595 513.000000,1.163595 
	C513.000000,65.865143 513.000000,130.682571 513.000000,196.000000 
M202.385849,501.774506 
	C203.704758,501.876617 205.067093,501.799835 206.335968,502.108032 
	C222.988174,506.152435 239.880508,507.567413 257.885468,507.002441 
	C261.259094,506.946808 264.632721,506.891174 268.917633,506.971588 
	C280.772614,505.648773 292.719269,504.867371 304.461609,502.879242 
	C323.212372,499.704437 341.308167,494.026886 358.610260,486.056213 
	C379.711334,476.335388 399.970459,465.133514 417.157013,449.273163 
	C428.056122,439.215088 438.299866,428.446899 449.138763,417.381897 
	C460.680939,404.593597 469.992004,390.294739 478.153046,374.352203 
	C481.143127,368.247925 484.133179,362.143646 487.756012,355.664154 
	C488.171112,354.437103 488.619293,353.220123 488.996185,351.981445 
	C492.948486,338.991791 496.889343,325.998596 501.208221,312.292786 
	C503.083282,300.197540 504.958374,288.102264 506.975830,275.079132 
	C506.936096,269.047302 506.896393,263.015442 506.972229,256.054749 
	C507.449554,239.043823 505.543243,222.315628 502.142578,205.623962 
	C497.222900,181.476089 488.733429,158.736130 476.968323,137.184219 
	C473.721466,131.236435 469.747986,125.685318 465.999542,119.238464 
	C459.766052,110.758003 453.944122,101.930855 447.178040,93.899071 
	C440.980225,86.541817 433.762817,80.043488 426.365265,72.819305 
	C422.786438,69.590187 419.285370,66.269562 415.614410,63.148788 
	C403.722107,53.038834 390.823059,44.407349 376.342163,36.852867 
	C366.804138,32.344250 357.430145,27.433407 347.675476,23.456110 
	C340.065002,20.353054 331.981506,18.410215 323.699219,15.271169 
	C318.193634,14.048857 312.739685,12.455632 307.171906,11.679891 
	C294.810608,9.957639 282.392212,8.645174 269.069366,7.025662 
	C255.712448,7.405563 242.355530,7.785464 228.153320,8.023853 
	C217.101944,10.071541 206.050552,12.119227 194.236832,14.288993 
	C184.157150,17.581316 174.077484,20.873638 163.276291,24.250992 
	C161.962494,24.829781 160.613968,25.341211 159.340485,25.998159 
	C150.218063,30.704100 141.110916,35.439636 131.297333,40.231483 
	C129.075806,41.507404 126.729851,42.609081 124.655243,44.090706 
	C117.349998,49.307888 110.137894,54.655499 102.180969,59.979324 
	C92.039558,69.230530 81.887421,78.470085 71.787170,87.766014 
	C71.261086,88.250206 71.176949,89.214584 70.273109,90.214775 
	C58.209923,102.679237 48.612900,116.940384 39.269321,132.172318 
	C34.552662,141.960098 29.439384,151.579483 25.198402,161.569199 
	C15.041255,185.494568 8.791640,210.634445 7.305835,236.451538 
	C5.926455,260.419434 6.524410,284.453766 11.745486,308.304077 
	C17.524788,334.704315 26.923983,359.445465 40.816471,383.301575 
	C49.228348,398.074921 58.592941,412.145020 70.995285,424.745087 
	C79.689377,433.179047 88.341148,441.657471 97.114197,450.008484 
	C98.817505,451.629883 100.993645,452.754486 103.219688,454.735504 
	C104.858124,456.038605 106.394318,457.503082 108.152451,458.617340 
	C116.388268,463.837097 124.685188,468.960480 133.243607,474.758514 
	C138.496033,477.450378 143.748474,480.142242 149.657150,483.147919 
	C156.752884,486.141296 163.848633,489.134674 171.309189,492.791748 
	C172.230484,493.055603 173.148438,493.331879 174.073608,493.581299 
	C183.368881,496.087128 192.665344,498.588470 202.385849,501.774506 
z"/>
<path fill="#18BAF1" opacity="1.000000" stroke="none" 
	d="
M102.890442,59.953621 
	C110.137894,54.655499 117.349998,49.307888 124.655243,44.090706 
	C126.729851,42.609081 129.075806,41.507404 131.739563,40.595871 
	C132.454117,42.928097 132.964523,44.895889 132.964859,46.863777 
	C132.989243,189.281937 132.973129,331.700104 132.960297,474.118286 
	C124.685188,468.960480 116.388268,463.837097 108.152451,458.617340 
	C106.394318,457.503082 104.858124,456.038605 103.249527,454.030487 
	C103.519424,451.358002 103.969101,449.390594 103.969612,447.423065 
	C104.002831,320.181549 104.004486,192.940033 103.953575,65.698524 
	C103.952805,63.783417 103.260185,61.868584 102.890442,59.953621 
z"/>
<path fill="#1DBDF1" opacity="1.000000" stroke="none" 
	d="
M102.535706,59.966473 
	C103.260185,61.868584 103.952805,63.783417 103.953575,65.698524 
	C104.004486,192.940033 104.002831,320.181549 103.969612,447.423065 
	C103.969101,449.390594 103.519424,451.358002 103.115524,453.716858 
	C100.993645,452.754486 98.817505,451.629883 97.114197,450.008484 
	C88.341148,441.657471 79.689377,433.179047 71.183685,424.053894 
	C71.581223,421.730194 71.972992,420.097687 71.973434,418.465088 
	C72.002335,310.876251 72.005386,203.287430 71.953369,95.698616 
	C71.952446,93.784035 71.257935,91.869804 70.887054,89.955406 
	C71.176949,89.214584 71.261086,88.250206 71.787170,87.766014 
	C81.887421,78.470085 92.039558,69.230530 102.535706,59.966473 
z"/>
<path fill="#22C0F2" opacity="1.000000" stroke="none" 
	d="
M70.580078,90.085091 
	C71.257935,91.869804 71.952446,93.784035 71.953369,95.698616 
	C72.005386,203.287430 72.002335,310.876251 71.973434,418.465088 
	C71.972992,420.097687 71.581223,421.730194 71.132187,423.705872 
	C58.592941,412.145020 49.228348,398.074921 40.847763,382.611755 
	C41.252190,379.819214 41.950100,377.716705 41.951580,375.613708 
	C42.007221,296.494995 42.014885,217.376221 41.912094,138.257599 
	C41.909325,136.126343 40.618565,133.996735 39.928429,131.866364 
	C48.612900,116.940384 58.209923,102.679237 70.580078,90.085091 
z"/>
<path fill="#00ABEB" opacity="1.000000" stroke="none" 
	d="
M269.997101,7.165643 
	C282.392212,8.645174 294.810608,9.957639 307.171906,11.679891 
	C312.739685,12.455632 318.193634,14.048857 323.585266,15.846924 
	C322.982635,17.946251 322.071259,19.468782 322.067505,20.993553 
	C321.985901,54.097710 322.045532,87.202232 321.951752,120.306320 
	C321.940765,124.188370 323.699036,125.069550 327.138214,125.039230 
	C339.780060,124.927719 352.423737,124.963905 365.066254,125.027824 
	C367.701508,125.041145 370.334930,125.410072 372.512207,125.706001 
	C349.510895,125.796883 326.966614,125.796883 304.002502,125.796883 
	C304.002502,128.366531 304.005524,130.324463 304.002075,132.282394 
	C303.947357,163.526886 303.891815,194.771362 303.564331,225.836975 
	C297.201752,219.759628 291.111328,213.861160 284.845154,207.677505 
	C277.416290,199.937164 270.163239,192.481979 263.276184,185.042816 
	C265.422821,185.782227 267.203491,186.505600 269.997101,187.640503 
	C269.997101,127.124466 269.997101,67.145050 269.997101,7.165643 
z"/>
<path fill="#02AFEE" opacity="1.000000" stroke="none" 
	d="
M269.533234,7.095653 
	C269.997101,67.145050 269.997101,127.124466 269.997101,187.640503 
	C267.203491,186.505600 265.422821,185.782227 262.994904,184.874969 
	C251.131012,173.341232 239.914383,161.991348 228.757721,150.135605 
	C228.878448,147.298828 228.991684,144.967957 228.992218,142.637039 
	C229.002243,97.813148 228.999069,52.989254 228.998611,8.165365 
	C242.355530,7.785464 255.712448,7.405563 269.533234,7.095653 
z"/>
<path fill="#13B7F0" opacity="1.000000" stroke="none" 
	d="
M133.101959,474.438385 
	C132.973129,331.700104 132.989243,189.281937 132.964859,46.863777 
	C132.964523,44.895889 132.454117,42.928097 132.090347,40.563019 
	C141.110916,35.439636 150.218063,30.704100 159.340485,25.998159 
	C160.613968,25.341211 161.962494,24.829781 163.648315,24.624414 
	C164.346893,28.960447 164.944397,32.922237 164.956375,36.885799 
	C165.039368,64.338455 165.072311,91.791862 164.925858,119.243988 
	C164.903076,123.514427 166.116638,125.222572 170.586655,125.058136 
	C179.061035,124.746399 187.552658,124.903015 196.441833,124.884117 
	C198.897842,125.191216 200.949158,125.479263 202.533859,125.806351 
	C182.970093,125.846535 163.872803,125.818176 144.775986,125.900513 
	C143.111313,125.907692 141.449799,126.643021 139.605682,127.397728 
	C139.545013,131.823853 139.665482,135.892365 139.856049,140.427338 
	C139.935730,214.152786 139.940918,287.411774 139.960480,360.670776 
	C139.962921,369.826141 140.041412,378.981537 140.271912,388.393402 
	C144.007950,392.423828 147.556717,396.197754 150.868256,400.276001 
	C150.087418,403.832825 149.090500,407.082764 149.072556,410.338135 
	C148.939377,434.502869 149.000671,458.668640 149.000916,482.834106 
	C143.748474,480.142242 138.496033,477.450378 133.101959,474.438385 
z"/>
<path fill="#28C2F3" opacity="1.000000" stroke="none" 
	d="
M39.598877,132.019348 
	C40.618565,133.996735 41.909325,136.126343 41.912094,138.257599 
	C42.014885,217.376221 42.007221,296.494995 41.951580,375.613708 
	C41.950100,377.716705 41.252190,379.819214 40.636795,382.337952 
	C26.923983,359.445465 17.524788,334.704315 11.745486,308.304077 
	C6.524410,284.453766 5.926455,260.419434 7.305835,236.451538 
	C8.791640,210.634445 15.041255,185.494568 25.198402,161.569199 
	C29.439384,151.579483 34.552662,141.960098 39.598877,132.019348 
z"/>
<path fill="#00A5E7" opacity="1.000000" stroke="none" 
	d="
M372.969208,125.615120 
	C370.334930,125.410072 367.701508,125.041145 365.066254,125.027824 
	C352.423737,124.963905 339.780060,124.927719 327.138214,125.039230 
	C323.699036,125.069550 321.940765,124.188370 321.951752,120.306320 
	C322.045532,87.202232 321.985901,54.097710 322.067505,20.993553 
	C322.071259,19.468782 322.982635,17.946251 323.789734,16.187244 
	C331.981506,18.410215 340.065002,20.353054 347.675476,23.456110 
	C357.430145,27.433407 366.804138,32.344250 376.669556,37.467709 
	C376.997986,63.714909 377.079681,89.347801 376.910126,114.979034 
	C376.885651,118.682419 375.654327,122.377823 374.739563,126.052788 
	C374.497620,126.028664 374.011749,126.003441 373.748291,125.913895 
	C373.312988,125.754616 373.141113,125.684868 372.969208,125.615120 
z"/>
<path fill="#009FE2" opacity="1.000000" stroke="none" 
	d="
M374.981476,126.076920 
	C375.654327,122.377823 376.885651,118.682419 376.910126,114.979034 
	C377.079681,89.347801 376.997986,63.714909 376.995728,37.624527 
	C390.823059,44.407349 403.722107,53.038834 415.614410,63.148788 
	C419.285370,66.269562 422.786438,69.590187 426.589874,73.390289 
	C426.543030,76.427963 426.040405,78.894203 426.035461,81.361427 
	C425.979645,109.332321 426.011169,137.303375 425.977081,165.274338 
	C425.974579,167.325775 425.645325,169.376816 425.447876,171.660980 
	C423.171265,171.400803 421.545471,171.214996 419.642944,170.854309 
	C416.245667,167.780792 413.125092,164.882187 409.821289,161.706299 
	C406.152588,158.172729 402.559906,155.022797 399.203308,151.638733 
	C391.437836,143.809708 383.786621,135.867325 375.960663,127.726662 
	C375.548645,127.013908 375.265045,126.545418 374.981476,126.076920 
z"/>
<path fill="#008AC7" opacity="1.000000" stroke="none" 
	d="
M506.856659,256.983612 
	C506.896393,263.015442 506.936096,269.047302 506.597748,275.658325 
	C503.257843,277.313202 500.100433,278.031708 497.368774,279.527679 
	C486.710480,285.364685 476.193573,291.459564 465.598328,297.412689 
	C464.907654,297.800751 463.938263,297.670197 463.206512,298.012054 
	C461.316681,298.894806 459.455627,299.850952 457.640045,300.878448 
	C452.536407,303.766571 447.487793,306.753479 442.347168,309.573273 
	C441.560425,310.004822 440.384521,309.666321 439.416962,309.841064 
	C437.091644,310.261169 434.491333,310.251251 432.523010,311.349030 
	C426.783752,314.549927 421.303528,318.214569 415.709930,321.678375 
	C415.159668,322.019135 414.529480,322.460327 413.934082,322.463867 
	C406.405579,322.508820 401.697479,328.523132 395.440308,331.290161 
	C388.083618,334.543396 381.276794,339.040161 374.155609,342.534546 
	C374.129669,330.047516 374.179688,318.023529 374.597321,305.991547 
	C376.211823,305.599823 377.599854,305.449249 378.682343,304.793976 
	C385.011414,300.962616 391.227173,296.943726 397.566193,293.129395 
	C401.421448,290.809601 405.410828,288.708435 409.387421,286.598480 
	C410.066711,286.238037 411.034363,286.461304 411.783508,286.184326 
	C413.797241,285.439758 415.879669,284.771393 417.730072,283.714325 
	C424.323273,279.948090 430.583923,275.495880 437.445404,272.333954 
	C443.568451,269.512299 448.403442,263.950897 455.718506,263.607330 
	C456.349457,263.577637 456.854218,262.409576 457.551208,261.994934 
	C463.596741,258.398346 469.607788,254.735214 475.766785,251.341721 
	C478.934540,249.596344 482.645020,248.746414 485.600922,246.741074 
	C487.270508,245.608383 487.906921,242.952789 489.292419,241.156784 
	C491.148956,242.816360 492.692200,244.335236 494.300476,245.781830 
	C498.470612,249.532745 502.669342,253.251831 506.856659,256.983612 
z"/>
<path fill="#008FCD" opacity="1.000000" stroke="none" 
	d="
M374.231537,342.997620 
	C381.276794,339.040161 388.083618,334.543396 395.440308,331.290161 
	C401.697479,328.523132 406.405579,322.508820 413.934082,322.463867 
	C414.529480,322.460327 415.159668,322.019135 415.709930,321.678375 
	C421.303528,318.214569 426.783752,314.549927 432.523010,311.349030 
	C434.491333,310.251251 437.091644,310.261169 439.416962,309.841064 
	C440.384521,309.666321 441.560425,310.004822 442.347168,309.573273 
	C447.487793,306.753479 452.536407,303.766571 457.640045,300.878448 
	C459.455627,299.850952 461.316681,298.894806 463.206512,298.012054 
	C463.938263,297.670197 464.907654,297.800751 465.598328,297.412689 
	C476.193573,291.459564 486.710480,285.364685 497.368774,279.527679 
	C500.100433,278.031708 503.257843,277.313202 506.526550,276.122253 
	C504.958374,288.102264 503.083282,300.197540 500.697113,312.730286 
	C499.007507,314.061798 497.914093,315.107422 496.636261,315.824371 
	C490.042114,319.524231 483.760468,324.358276 476.676880,326.449921 
	C469.253937,328.641754 464.200714,334.129089 457.490143,336.996124 
	C455.016327,338.053101 452.496643,339.002655 449.798828,339.860596 
	C449.067322,340.146362 448.534882,340.572784 447.722351,341.058441 
	C446.961426,341.412567 446.480591,341.707520 445.623047,342.076691 
	C441.662415,343.733917 438.065826,345.289001 434.498199,346.907898 
	C431.052063,348.471680 427.576477,351.531281 424.219208,351.392029 
	C418.003906,351.134308 413.805145,355.492462 408.283600,356.639130 
	C405.694153,357.176941 403.900116,361.442963 400.492798,357.762573 
	C400.238892,357.488342 398.618317,358.087219 397.946594,358.652618 
	C391.053497,364.454651 382.711487,366.877441 374.152222,368.531555 
	C374.128845,359.711578 374.180176,351.354614 374.231537,342.997620 
z"/>
<path fill="#009BDF" opacity="1.000000" stroke="none" 
	d="
M419.919678,171.029205 
	C421.545471,171.214996 423.171265,171.400803 425.447876,171.660980 
	C425.645325,169.376816 425.974579,167.325775 425.977081,165.274338 
	C426.011169,137.303375 425.979645,109.332321 426.035461,81.361427 
	C426.040405,78.894203 426.543030,76.427963 426.904572,73.563972 
	C433.762817,80.043488 440.980225,86.541817 447.178040,93.899071 
	C453.944122,101.930855 459.766052,110.758003 465.820404,119.913277 
	C465.760773,124.524582 465.978149,128.460938 465.983673,132.397583 
	C466.016388,155.729889 465.918579,179.062790 466.070709,202.394150 
	C466.100067,206.895950 465.733612,210.938385 461.703735,213.802063 
	C453.606842,205.763184 445.801605,197.884476 437.822174,189.723083 
	C431.738586,183.303329 425.829132,177.166260 419.919678,171.029205 
z"/>
<path fill="#08B2EF" opacity="1.000000" stroke="none" 
	d="
M203.000458,125.767303 
	C200.949158,125.479263 198.897842,125.191216 196.430725,124.429443 
	C196.009949,91.489594 196.040436,59.023384 195.955841,26.557472 
	C195.945068,22.426483 195.332794,18.297062 194.999176,14.166915 
	C206.050552,12.119227 217.101944,10.071541 228.575958,8.094608 
	C228.999069,52.989254 229.002243,97.813148 228.992218,142.637039 
	C228.991684,144.967957 228.878448,147.298828 228.478638,149.923508 
	C223.317764,145.506439 218.550064,140.737991 213.638702,136.122391 
	C212.292328,134.857117 210.515610,134.049774 208.964920,133.019440 
	C208.993469,133.006607 208.970139,133.064713 209.002686,132.732239 
	C208.384521,131.874908 207.733826,131.350052 206.856964,130.595383 
	C205.420700,128.832825 204.210587,127.300064 203.000458,125.767303 
z"/>
<path fill="#009EDE" opacity="1.000000" stroke="none" 
	d="
M448.837524,417.997162 
	C438.299866,428.446899 428.056122,439.215088 417.157013,449.273163 
	C399.970459,465.133514 379.711334,476.335388 358.610260,486.056213 
	C341.308167,494.026886 323.212372,499.704437 304.461609,502.879242 
	C292.719269,504.867371 280.772614,505.648773 268.553467,506.572540 
	C270.072876,504.972229 271.914032,503.697021 273.849854,502.586853 
	C276.824066,500.881195 279.949951,499.428070 282.855988,497.618073 
	C288.026001,494.397949 293.075073,490.983887 298.190552,487.675293 
	C298.593567,487.414673 299.125885,487.188690 299.587158,487.208038 
	C307.113098,487.522980 311.345642,480.970337 317.600586,478.427460 
	C324.138733,475.769470 329.737244,470.809387 335.776489,466.901947 
	C336.448669,466.466980 337.343201,466.392975 338.089050,466.051941 
	C343.772827,463.452881 349.446899,460.832611 355.116516,458.202789 
	C355.407227,458.067963 355.610016,457.755554 355.886444,457.576263 
	C363.641266,452.547394 370.431213,445.803131 380.352539,443.929443 
	C386.032928,440.849579 391.330109,437.780121 396.713623,434.870331 
	C398.048462,434.148773 400.196442,433.108124 401.052338,433.653992 
	C404.036499,435.557312 405.563110,433.818024 407.495697,432.112030 
	C408.555573,431.176331 409.987274,430.538849 411.358002,430.100037 
	C416.734222,428.378784 422.178894,426.870392 427.549377,425.132202 
	C434.669312,422.827728 441.743622,420.382111 448.837524,417.997162 
z"/>
<path fill="#009CD9" opacity="1.000000" stroke="none" 
	d="
M380.001221,443.998779 
	C370.431213,445.803131 363.641266,452.547394 355.886444,457.576263 
	C355.610016,457.755554 355.407227,458.067963 355.116516,458.202789 
	C349.446899,460.832611 343.772827,463.452881 338.089050,466.051941 
	C337.343201,466.392975 336.448669,466.466980 335.776489,466.901947 
	C329.737244,470.809387 324.138733,475.769470 317.600586,478.427460 
	C311.345642,480.970337 307.113098,487.522980 299.587158,487.208038 
	C299.125885,487.188690 298.593567,487.414673 298.190552,487.675293 
	C293.075073,490.983887 288.026001,494.397949 282.855988,497.618073 
	C279.949951,499.428070 276.824066,500.881195 273.849854,502.586853 
	C271.914032,503.697021 270.072876,504.972229 268.097839,506.504517 
	C264.632721,506.891174 261.259094,506.946808 257.361420,506.604614 
	C251.551651,500.474182 246.265915,494.741608 241.368179,489.000305 
	C243.472458,488.450439 245.648224,488.397888 246.829071,487.287384 
	C253.569611,480.948486 260.712006,475.278137 269.374451,471.765137 
	C271.646118,470.843933 273.953308,469.997925 276.175079,468.968262 
	C283.301483,465.665741 291.306305,464.019379 297.339050,457.939148 
	C300.054901,458.034485 302.695770,458.922699 304.753967,458.185059 
	C308.533173,456.830627 311.930298,454.440948 315.556274,452.621521 
	C322.877136,448.948120 330.208710,445.291534 337.615997,441.797913 
	C339.683716,440.822693 342.255707,440.833740 344.210205,439.716675 
	C350.569092,436.082397 356.199982,430.722198 364.574310,432.632599 
	C365.554810,432.856262 366.884796,430.898804 368.216583,430.349670 
	C372.772034,428.471283 377.400543,426.770020 381.973083,425.399017 
	C381.296997,431.864166 380.649109,437.931458 380.001221,443.998779 
z"/>
<path fill="#0DB5F0" opacity="1.000000" stroke="none" 
	d="
M194.618011,14.227954 
	C195.332794,18.297062 195.945068,22.426483 195.955841,26.557472 
	C196.040436,59.023384 196.009949,91.489594 196.026001,124.410385 
	C187.552658,124.903015 179.061035,124.746399 170.586655,125.058136 
	C166.116638,125.222572 164.903076,123.514427 164.925858,119.243988 
	C165.072311,91.791862 165.039368,64.338455 164.956375,36.885799 
	C164.944397,32.922237 164.346893,28.960447 164.009064,24.581900 
	C174.077484,20.873638 184.157150,17.581316 194.618011,14.227954 
z"/>
<path fill="#0097DC" opacity="1.000000" stroke="none" 
	d="
M461.995392,213.962250 
	C465.733612,210.938385 466.100067,206.895950 466.070709,202.394150 
	C465.918579,179.062790 466.016388,155.729889 465.983673,132.397583 
	C465.978149,128.460938 465.760773,124.524582 465.874573,120.270142 
	C469.747986,125.685318 473.721466,131.236435 476.968323,137.184219 
	C488.733429,158.736130 497.222900,181.476089 502.142578,205.623962 
	C505.543243,222.315628 507.449554,239.043823 506.914429,256.519165 
	C502.669342,253.251831 498.470612,249.532745 494.300476,245.781830 
	C492.692200,244.335236 491.148956,242.816360 489.070496,240.912506 
	C480.377289,232.328369 472.189667,224.162125 463.851410,215.749069 
	C463.132324,214.988922 462.563843,214.475586 461.995392,213.962250 
z"/>
<path fill="#0097D7" opacity="1.000000" stroke="none" 
	d="
M382.001221,425.001221 
	C377.400543,426.770020 372.772034,428.471283 368.216583,430.349670 
	C366.884796,430.898804 365.554810,432.856262 364.574310,432.632599 
	C356.199982,430.722198 350.569092,436.082397 344.210205,439.716675 
	C342.255707,440.833740 339.683716,440.822693 337.615997,441.797913 
	C330.208710,445.291534 322.877136,448.948120 315.556274,452.621521 
	C311.930298,454.440948 308.533173,456.830627 304.753967,458.185059 
	C302.695770,458.922699 300.054901,458.034485 297.457581,457.605133 
	C297.974640,456.698914 298.646637,455.965698 299.457458,455.451324 
	C306.276978,451.125153 313.242035,447.016113 319.920624,442.484100 
	C325.132904,438.947113 329.993652,434.892822 335.028748,431.092468 
	C335.412201,430.803040 335.962494,430.746368 336.398071,430.512329 
	C339.021423,429.102753 341.708618,427.791748 344.224915,426.209869 
	C346.024597,425.078552 347.488586,423.415283 349.282959,422.273010 
	C352.380493,420.301147 355.635345,418.578156 358.789062,416.692017 
	C360.052643,415.936279 361.204193,414.995819 362.439423,414.189545 
	C368.977936,409.921814 375.568909,405.731934 382.026855,401.345978 
	C382.995178,400.688354 383.357391,399.138397 384.391388,397.973999 
	C388.932220,396.083740 393.152740,394.361847 397.211456,392.318512 
	C401.385803,390.216980 405.387543,387.774506 409.506653,385.558960 
	C410.015717,385.285126 410.971863,385.217377 411.398071,385.515533 
	C414.270142,387.524567 415.831146,385.475586 417.788574,383.845490 
	C419.268951,382.612671 421.149719,381.285889 422.957794,381.114624 
	C434.627441,380.009186 444.070862,373.145996 454.462189,368.864960 
	C458.125366,367.355835 462.739563,366.800079 465.322266,364.565369 
	C471.793091,358.966309 480.309021,359.892944 487.123230,356.039368 
	C484.133179,362.143646 481.143127,368.247925 477.637054,374.597229 
	C474.515839,375.316711 471.567322,375.172150 469.373535,376.388580 
	C464.038452,379.346924 459.055420,382.939667 453.923676,386.266205 
	C453.652039,386.442322 453.318848,386.624054 453.011292,386.629395 
	C445.104126,386.767029 440.165955,393.103333 433.613312,396.105164 
	C426.937225,399.163635 421.127136,404.056274 414.681244,407.690704 
	C409.197815,410.782440 403.266235,413.068726 397.686340,416.003021 
	C392.354980,418.806580 387.221588,421.986633 382.001221,425.001221 
z"/>
<path fill="#0093D4" opacity="1.000000" stroke="none" 
	d="
M487.439636,355.851746 
	C480.309021,359.892944 471.793091,358.966309 465.322266,364.565369 
	C462.739563,366.800079 458.125366,367.355835 454.462189,368.864960 
	C444.070862,373.145996 434.627441,380.009186 422.957794,381.114624 
	C421.149719,381.285889 419.268951,382.612671 417.788574,383.845490 
	C415.831146,385.475586 414.270142,387.524567 411.398071,385.515533 
	C410.971863,385.217377 410.015717,385.285126 409.506653,385.558960 
	C405.387543,387.774506 401.385803,390.216980 397.211456,392.318512 
	C393.152740,394.361847 388.932220,396.083740 384.148926,397.737701 
	C378.606964,393.141449 376.946564,401.403625 372.336273,400.283264 
	C372.225250,398.539246 372.112640,396.769623 372.094604,394.646851 
	C377.384766,392.036438 381.665375,388.550812 385.609100,384.546631 
	C386.176849,383.970184 387.553558,384.276917 388.458679,383.924896 
	C389.638092,383.466187 391.069733,383.029144 391.783783,382.109772 
	C394.798340,378.228577 398.048309,374.957153 403.268616,374.183990 
	C404.561920,373.992462 405.698029,372.561066 406.850983,371.630920 
	C412.321716,367.217285 417.203308,361.451721 423.417847,358.784821 
	C428.113525,356.769714 431.502289,354.043091 434.977539,350.838928 
	C435.427673,350.423920 436.163483,350.229645 436.799255,350.119232 
	C441.541168,349.295959 444.133331,346.067413 445.999756,342.002441 
	C446.480591,341.707520 446.961426,341.412567 448.001404,340.999786 
	C449.039642,340.588379 449.518768,340.294830 449.997864,340.001221 
	C452.496643,339.002655 455.016327,338.053101 457.490143,336.996124 
	C464.200714,334.129089 469.253937,328.641754 476.676880,326.449921 
	C483.760468,324.358276 490.042114,319.524231 496.636261,315.824371 
	C497.914093,315.107422 499.007507,314.061798 500.509705,313.087097 
	C496.889343,325.998596 492.948486,338.991791 488.996185,351.981445 
	C488.619293,353.220123 488.171112,354.437103 487.439636,355.851746 
z"/>
<path fill="#0097DC" opacity="1.000000" stroke="none" 
	d="
M381.973083,425.399048 
	C387.221588,421.986633 392.354980,418.806580 397.686340,416.003021 
	C403.266235,413.068726 409.197815,410.782440 414.681244,407.690704 
	C421.127136,404.056274 426.937225,399.163635 433.613312,396.105164 
	C440.165955,393.103333 445.104126,386.767029 453.011292,386.629395 
	C453.318848,386.624054 453.652039,386.442322 453.923676,386.266205 
	C459.055420,382.939667 464.038452,379.346924 469.373535,376.388580 
	C471.567322,375.172150 474.515839,375.316711 477.476807,374.921265 
	C469.992004,390.294739 460.680939,404.593597 448.988159,417.689514 
	C441.743622,420.382111 434.669312,422.827728 427.549377,425.132202 
	C422.178894,426.870392 416.734222,428.378784 411.358002,430.100037 
	C409.987274,430.538849 408.555573,431.176331 407.495697,432.112030 
	C405.563110,433.818024 404.036499,435.557312 401.052338,433.653992 
	C400.196442,433.108124 398.048462,434.148773 396.713623,434.870331 
	C391.330109,437.780121 386.032928,440.849579 380.352539,443.929443 
	C380.649109,437.931458 381.296997,431.864166 381.973083,425.399048 
M389.778259,425.919952 
	C389.648621,426.510193 389.519012,427.100464 389.389404,427.690765 
	C389.796509,427.702362 390.203644,427.713989 390.610748,427.725586 
	C390.499542,427.129028 390.388336,426.532471 389.778259,425.919952 
z"/>
<path fill="#0DB5F0" opacity="1.000000" stroke="none" 
	d="
M201.961456,501.091064 
	C192.665344,498.588470 183.368881,496.087128 174.073608,493.581299 
	C173.148438,493.331879 172.230484,493.055603 171.139160,491.983612 
	C170.979431,480.360931 171.115387,469.544647 170.967957,458.732239 
	C170.786819,445.448853 170.369080,432.168671 170.333786,419.071411 
	C174.404404,422.840363 178.194870,426.425049 182.161224,430.291443 
	C187.559143,435.717438 192.781189,440.861755 198.167999,446.286682 
	C199.894714,448.361237 201.456650,450.155212 203.014252,452.420990 
	C203.006271,466.684845 203.049423,480.477203 202.952576,494.268555 
	C202.936600,496.544952 202.307297,498.817017 201.961456,501.091064 
z"/>
<path fill="#12B7F0" opacity="1.000000" stroke="none" 
	d="
M170.053619,418.887115 
	C170.369080,432.168671 170.786819,445.448853 170.967957,458.732239 
	C171.115387,469.544647 170.979431,480.360931 170.956757,491.651733 
	C163.848633,489.134674 156.752884,486.141296 149.329025,482.991028 
	C149.000671,458.668640 148.939377,434.502869 149.072556,410.338135 
	C149.090500,407.082764 150.087418,403.832825 151.145233,400.447510 
	C157.778564,406.204987 163.897690,412.095276 170.025909,418.210968 
	C170.034988,418.436340 170.053619,418.887115 170.053619,418.887115 
z"/>
<path fill="#08B2EF" opacity="1.000000" stroke="none" 
	d="
M202.173645,501.432800 
	C202.307297,498.817017 202.936600,496.544952 202.952576,494.268555 
	C203.049423,480.477203 203.006271,466.684845 203.297440,452.598389 
	C208.393433,456.868469 213.201904,461.433014 218.180374,466.282562 
	C224.569885,472.710449 230.789398,478.853333 237.167908,485.270508 
	C238.544662,486.699524 239.762421,487.854279 240.980179,489.009033 
	C246.265915,494.741608 251.551651,500.474182 256.906281,506.533386 
	C239.880508,507.567413 222.988174,506.152435 206.335968,502.108032 
	C205.067093,501.799835 203.704758,501.876617 202.173645,501.432800 
z"/>
<path fill="#FFFFFF" opacity="1.000000" stroke="none" 
	d="
M202.533859,125.806351 
	C204.210587,127.300064 205.420700,128.832825 206.850555,130.915710 
	C207.703583,131.998779 208.336868,132.531754 208.970139,133.064713 
	C208.970139,133.064713 208.993469,133.006607 209.032654,133.358093 
	C212.010147,137.743134 214.932938,141.788101 217.889359,145.808350 
	C235.799118,170.162689 253.716568,194.511353 271.745453,219.156128 
	C282.283844,233.722168 292.708191,247.993988 303.836456,263.229492 
	C303.836456,249.908951 303.836456,237.962402 303.836487,226.015854 
	C303.891815,194.771362 303.947357,163.526886 304.002075,132.282394 
	C304.005524,130.324463 304.002502,128.366531 304.002502,125.796883 
	C326.966614,125.796883 349.510895,125.796883 372.512207,125.706001 
	C373.141113,125.684868 373.312988,125.754616 373.762695,126.247246 
	C374.096954,127.109474 374.153381,127.548805 374.134155,128.452774 
	C374.113678,147.278595 374.168915,165.639771 374.146637,184.463837 
	C374.122498,198.282959 374.175842,211.639206 374.150421,225.458557 
	C374.124573,239.613495 374.177521,253.305313 374.151489,267.460022 
	C374.124908,280.615143 374.177307,293.307343 374.229706,305.999573 
	C374.179688,318.023529 374.129669,330.047516 374.155609,342.534546 
	C374.180176,351.354614 374.128845,359.711578 374.074219,368.994690 
	C374.070923,375.838531 374.070923,381.756317 374.070923,388.403076 
	C360.715332,388.403076 347.858887,388.403076 334.541565,388.312256 
	C329.599365,388.207367 325.101776,387.950745 320.641205,388.248505 
	C316.309448,388.537659 312.612274,387.926971 310.120422,383.574768 
	C305.104492,376.361053 300.141235,369.501190 295.084839,362.317566 
	C289.516602,354.591492 284.041565,347.189240 278.351288,339.503662 
	C273.152802,332.452728 268.169556,325.685150 263.087372,318.586548 
	C258.949677,312.851562 254.910934,307.447601 250.787659,301.717773 
	C244.537704,293.130280 238.372299,284.868591 232.113312,276.285126 
	C224.959244,266.292236 217.898788,256.621155 210.170105,246.034729 
	C210.170105,263.509064 210.170105,279.753296 210.095978,296.461182 
	C210.071335,309.949524 210.120819,322.974243 210.097198,336.462646 
	C210.074356,347.612213 210.124634,358.298065 210.113647,369.242676 
	C210.090378,369.674561 210.128342,369.847687 210.092560,370.482544 
	C210.018784,376.636627 210.018784,382.328979 210.018784,388.393982 
	C201.486206,388.393982 193.747131,388.393982 185.547577,388.299438 
	C170.086304,388.182220 155.085480,388.159576 140.084656,388.136902 
	C140.041412,378.981537 139.962921,369.826141 139.960480,360.670776 
	C139.940918,287.411774 139.935730,214.152786 139.930374,139.972687 
	C139.885345,135.047760 139.836075,131.043930 139.786819,127.040115 
	C141.449799,126.643021 143.111313,125.907692 144.775986,125.900513 
	C163.872803,125.818176 182.970093,125.846535 202.533859,125.806351 
z"/>
<path fill="#0275A0" opacity="1.000000" stroke="none" 
	d="
M271.631439,218.861923 
	C253.716568,194.511353 235.799118,170.162689 217.889359,145.808350 
	C214.932938,141.788101 212.010147,137.743134 209.004089,133.370941 
	C210.515610,134.049774 212.292328,134.857117 213.638702,136.122391 
	C218.550064,140.737991 223.317764,145.506439 228.418686,150.429382 
	C239.914383,161.991348 251.131012,173.341232 262.628906,184.858948 
	C270.163239,192.481979 277.416290,199.937164 284.765564,208.016983 
	C283.656738,209.929398 282.612946,211.437943 281.213776,212.459885 
	C278.114380,214.723572 274.836517,216.742920 271.631439,218.861923 
z"/>
<path fill="#027BAA" opacity="1.000000" stroke="none" 
	d="
M271.745453,219.156128 
	C274.836517,216.742920 278.114380,214.723572 281.213776,212.459885 
	C282.612946,211.437943 283.656738,209.929398 284.941345,208.302155 
	C291.111328,213.861160 297.201752,219.759628 303.564331,225.836975 
	C303.836456,237.962402 303.836456,249.908951 303.836456,263.229492 
	C292.708191,247.993988 282.283844,233.722168 271.745453,219.156128 
z"/>
<path fill="#118CB7" opacity="1.000000" stroke="none" 
	d="
M140.271927,388.393402 
	C155.085480,388.159576 170.086304,388.182220 185.462372,388.621704 
	C182.796265,394.546021 179.739105,400.044952 176.718735,405.563965 
	C174.460159,409.691040 172.249054,413.844086 170.016815,417.985596 
	C163.897690,412.095276 157.778564,406.204987 151.382462,400.143188 
	C147.556717,396.197754 144.007950,392.423828 140.271927,388.393402 
z"/>
<path fill="#18BAF1" opacity="1.000000" stroke="none" 
	d="
M139.605682,127.397720 
	C139.836075,131.043930 139.885345,135.047760 139.860291,139.506226 
	C139.665482,135.892365 139.545013,131.823853 139.605682,127.397720 
z"/>
<path fill="#017CB0" opacity="1.000000" stroke="none" 
	d="
M374.209839,127.988144 
	C374.153381,127.548805 374.096954,127.109474 374.026123,126.336792 
	C374.011749,126.003441 374.497620,126.028664 374.739532,126.052795 
	C375.265045,126.545418 375.548645,127.013908 375.646790,127.732803 
	C375.044159,127.984848 374.627014,127.986496 374.209839,127.988144 
z"/>
<path fill="#017CB0" opacity="1.000000" stroke="none" 
	d="
M374.229218,224.995438 
	C374.175842,211.639206 374.122498,198.282959 374.501251,184.437164 
	C375.418945,183.852188 375.967590,183.871521 376.380920,183.644516 
	C386.229462,178.235458 396.132568,172.918533 405.838104,167.262772 
	C407.640381,166.212540 408.636383,163.778809 410.004517,161.983582 
	C413.125092,164.882187 416.245667,167.780792 419.642944,170.854294 
	C425.829132,177.166260 431.738586,183.303329 437.740601,190.062439 
	C434.780823,192.392441 431.754028,194.148270 428.669250,195.795425 
	C425.289490,197.600113 421.888977,199.372971 418.433441,201.025696 
	C416.503693,201.948624 414.457489,202.637970 412.436310,203.355240 
	C411.536316,203.674637 410.434326,203.582260 409.654480,204.056091 
	C405.902008,206.336090 402.240082,208.764465 398.523834,211.104919 
	C391.842255,215.312897 385.173828,219.543381 378.427429,223.645248 
	C377.205933,224.387924 375.637482,224.559967 374.229218,224.995438 
z"/>
<path fill="#027BAA" opacity="1.000000" stroke="none" 
	d="
M409.821289,161.706299 
	C408.636383,163.778809 407.640381,166.212540 405.838104,167.262772 
	C396.132568,172.918533 386.229462,178.235458 376.380920,183.644516 
	C375.967590,183.871521 375.418945,183.852188 374.578735,183.974289 
	C374.168915,165.639771 374.113678,147.278595 374.134155,128.452774 
	C374.627014,127.986496 375.044159,127.984848 375.775208,127.977066 
	C383.786621,135.867325 391.437836,143.809708 399.203308,151.638733 
	C402.559906,155.022797 406.152588,158.172729 409.821289,161.706299 
z"/>
<path fill="#0086BF" opacity="1.000000" stroke="none" 
	d="
M374.597321,305.991547 
	C374.177307,293.307343 374.124908,280.615143 374.519043,267.452179 
	C376.915619,266.146240 378.994873,265.524597 380.792053,264.436890 
	C386.865601,260.761078 392.463501,255.944504 398.965851,253.440857 
	C404.480652,251.317459 408.117676,244.701538 415.290985,246.474396 
	C415.992615,246.647827 417.097046,245.183304 418.017273,244.482651 
	C419.601807,243.276169 421.095490,241.918823 422.790039,240.893768 
	C430.969757,235.945648 439.187805,231.060013 447.440857,226.235382 
	C448.360870,225.697556 449.596039,225.446136 450.673920,225.475204 
	C455.026215,225.592560 462.727386,220.197952 464.002014,215.995880 
	C472.189667,224.162125 480.377289,232.328369 488.786804,240.738876 
	C487.906921,242.952789 487.270508,245.608383 485.600922,246.741074 
	C482.645020,248.746414 478.934540,249.596344 475.766785,251.341721 
	C469.607788,254.735214 463.596741,258.398346 457.551208,261.994934 
	C456.854218,262.409576 456.349457,263.577637 455.718506,263.607330 
	C448.403442,263.950897 443.568451,269.512299 437.445404,272.333954 
	C430.583923,275.495880 424.323273,279.948090 417.730072,283.714325 
	C415.879669,284.771393 413.797241,285.439758 411.783508,286.184326 
	C411.034363,286.461304 410.066711,286.238037 409.387421,286.598480 
	C405.410828,288.708435 401.421448,290.809601 397.566193,293.129395 
	C391.227173,296.943726 385.011414,300.962616 378.682343,304.793976 
	C377.599854,305.449249 376.211823,305.599823 374.597321,305.991547 
z"/>
<path fill="#0295D0" opacity="1.000000" stroke="none" 
	d="
M335.002441,388.403076 
	C347.858887,388.403076 360.715332,388.403076 374.070923,388.403076 
	C374.070923,381.756317 374.070923,375.838531 374.148926,369.457642 
	C382.711487,366.877441 391.053497,364.454651 397.946594,358.652618 
	C398.618317,358.087219 400.238892,357.488342 400.492798,357.762573 
	C403.900116,361.442963 405.694153,357.176941 408.283600,356.639130 
	C413.805145,355.492462 418.003906,351.134308 424.219208,351.392029 
	C427.576477,351.531281 431.052063,348.471680 434.498199,346.907898 
	C438.065826,345.289001 441.662415,343.733917 445.623047,342.076660 
	C444.133331,346.067413 441.541168,349.295959 436.799255,350.119232 
	C436.163483,350.229645 435.427673,350.423920 434.977539,350.838928 
	C431.502289,354.043091 428.113525,356.769714 423.417847,358.784821 
	C417.203308,361.451721 412.321716,367.217285 406.850983,371.630920 
	C405.698029,372.561066 404.561920,373.992462 403.268616,374.183990 
	C398.048309,374.957153 394.798340,378.228577 391.783783,382.109772 
	C391.069733,383.029144 389.638092,383.466187 388.458679,383.924896 
	C387.553558,384.276917 386.176849,383.970184 385.609100,384.546631 
	C381.665375,388.550812 377.384766,392.036438 371.755676,394.722046 
	C367.895081,397.098236 364.439087,398.997314 361.047363,401.005005 
	C355.440857,404.323761 349.945465,407.837708 344.254822,411.002502 
	C342.316589,412.080444 339.910553,412.959290 337.753601,412.886169 
	C330.071381,412.625854 324.288696,417.006683 318.182648,420.473572 
	C313.538910,423.110168 309.289734,426.434204 304.755859,429.278442 
	C303.905823,429.811707 302.541016,429.538544 301.411957,429.609009 
	C300.290894,429.678986 298.969757,429.345337 298.078766,429.824890 
	C293.720490,432.170715 289.458679,434.698792 285.196259,437.219086 
	C278.231506,441.337250 271.645233,446.394653 264.215698,449.319458 
	C259.475800,451.185516 256.822266,453.879944 254.651016,457.835510 
	C250.189041,465.964447 245.873596,474.176422 241.246933,482.209717 
	C240.493332,483.518158 238.453979,484.086060 237.008911,484.996246 
	C230.789398,478.853333 224.569885,472.710449 218.528137,466.214233 
	C223.667847,463.383850 227.085983,457.351288 233.945282,459.244049 
	C241.712341,453.933533 249.464722,448.601379 257.251556,443.320007 
	C262.542450,439.731476 267.867218,436.192139 273.217621,432.693176 
	C273.876862,432.262024 274.849274,432.336548 275.571259,431.969543 
	C277.743866,430.865112 280.115601,429.958038 281.947876,428.422852 
	C284.871796,425.972809 287.290100,422.925812 290.167999,420.412720 
	C293.381500,417.606659 296.754456,414.945801 300.280334,412.548737 
	C302.432404,411.085602 305.051178,410.327789 307.369537,409.083893 
	C308.942993,408.239685 310.318146,407.034149 311.854034,406.109985 
	C314.623047,404.443939 317.460449,402.891998 320.242126,401.246490 
	C322.626678,399.835968 325.248688,398.666351 327.270325,396.841370 
	C330.089478,394.296448 332.447205,391.240387 335.002441,388.403076 
z"/>
<path fill="#0295D0" opacity="1.000000" stroke="none" 
	d="
M449.798828,339.860596 
	C449.518768,340.294830 449.039642,340.588379 448.281494,340.940582 
	C448.534882,340.572784 449.067322,340.146362 449.798828,339.860596 
z"/>
<path fill="#0081B7" opacity="1.000000" stroke="none" 
	d="
M463.851410,215.749084 
	C462.727386,220.197952 455.026215,225.592560 450.673920,225.475204 
	C449.596039,225.446136 448.360870,225.697556 447.440857,226.235382 
	C439.187805,231.060013 430.969757,235.945648 422.790039,240.893768 
	C421.095490,241.918823 419.601807,243.276169 418.017273,244.482651 
	C417.097046,245.183304 415.992615,246.647827 415.290985,246.474396 
	C408.117676,244.701538 404.480652,251.317459 398.965851,253.440857 
	C392.463501,255.944504 386.865601,260.761078 380.792053,264.436890 
	C378.994873,265.524597 376.915619,266.146240 374.598022,266.989288 
	C374.177521,253.305313 374.124573,239.613495 374.150421,225.458557 
	C375.637482,224.559967 377.205933,224.387924 378.427429,223.645248 
	C385.173828,219.543381 391.842255,215.312897 398.523834,211.104919 
	C402.240082,208.764465 405.902008,206.336090 409.654480,204.056091 
	C410.434326,203.582260 411.536316,203.674637 412.436310,203.355240 
	C414.457489,202.637970 416.503693,201.948624 418.433441,201.025696 
	C421.888977,199.372971 425.289490,197.600113 428.669250,195.795425 
	C431.754028,194.148270 434.780823,192.392441 437.914734,190.345123 
	C445.801605,197.884476 453.606842,205.763184 461.703735,213.802078 
	C462.563843,214.475586 463.132324,214.988922 463.851410,215.749084 
z"/>
<path fill="#0275A0" opacity="1.000000" stroke="none" 
	d="
M209.002686,132.732239 
	C208.336868,132.531754 207.703583,131.998779 207.076721,131.145508 
	C207.733826,131.350052 208.384521,131.874908 209.002686,132.732239 
z"/>
<path fill="#0098D3" opacity="1.000000" stroke="none" 
	d="
M237.167908,485.270508 
	C238.453979,484.086060 240.493332,483.518158 241.246933,482.209717 
	C245.873596,474.176422 250.189041,465.964447 254.651016,457.835510 
	C256.822266,453.879944 259.475800,451.185516 264.215698,449.319458 
	C271.645233,446.394653 278.231506,441.337250 285.196259,437.219086 
	C289.458679,434.698792 293.720490,432.170715 298.078766,429.824890 
	C298.969757,429.345337 300.290894,429.678986 301.411957,429.609009 
	C302.541016,429.538544 303.905823,429.811707 304.755859,429.278442 
	C309.289734,426.434204 313.538910,423.110168 318.182648,420.473572 
	C324.288696,417.006683 330.071381,412.625854 337.753601,412.886169 
	C339.910553,412.959290 342.316589,412.080444 344.254822,411.002502 
	C349.945465,407.837708 355.440857,404.323761 361.047363,401.005005 
	C364.439087,398.997314 367.895081,397.098236 371.661102,395.075195 
	C372.112640,396.769623 372.225250,398.539246 372.336273,400.283264 
	C376.946564,401.403625 378.606964,393.141449 383.757568,397.764893 
	C383.357391,399.138397 382.995178,400.688354 382.026855,401.345978 
	C375.568909,405.731934 368.977936,409.921814 362.439423,414.189545 
	C361.204193,414.995819 360.052643,415.936279 358.789062,416.692017 
	C355.635345,418.578156 352.380493,420.301147 349.282959,422.273010 
	C347.488586,423.415283 346.024597,425.078552 344.224915,426.209869 
	C341.708618,427.791748 339.021423,429.102753 336.398071,430.512329 
	C335.962494,430.746368 335.412201,430.803040 335.028748,431.092468 
	C329.993652,434.892822 325.132904,438.947113 319.920624,442.484100 
	C313.242035,447.016113 306.276978,451.125153 299.457458,455.451324 
	C298.646637,455.965698 297.974640,456.698914 297.119751,457.664734 
	C291.306305,464.019379 283.301483,465.665741 276.175079,468.968262 
	C273.953308,469.997925 271.646118,470.843933 269.374451,471.765137 
	C260.712006,475.278137 253.569611,480.948486 246.829071,487.287384 
	C245.648224,488.397888 243.472458,488.450439 241.368179,489.000305 
	C239.762421,487.854279 238.544662,486.699524 237.167908,485.270508 
z"/>
<path fill="#009CD9" opacity="1.000000" stroke="none" 
	d="
M390.027710,425.927917 
	C390.388336,426.532471 390.499542,427.129028 390.610748,427.725586 
	C390.203644,427.713989 389.796509,427.702362 389.389404,427.690735 
	C389.519012,427.100464 389.648621,426.510193 390.027710,425.927917 
z"/>
<path fill="#0194CB" opacity="1.000000" stroke="none" 
	d="
M334.541595,388.312256 
	C332.447205,391.240387 330.089478,394.296448 327.270325,396.841370 
	C325.248688,398.666351 322.626678,399.835968 320.242126,401.246490 
	C317.460449,402.891998 314.623047,404.443939 311.854034,406.109985 
	C310.318146,407.034149 308.942993,408.239685 307.369537,409.083893 
	C305.051178,410.327789 302.432404,411.085602 300.280334,412.548737 
	C296.754456,414.945801 293.381500,417.606659 290.167999,420.412720 
	C287.290100,422.925812 284.871796,425.972809 281.947876,428.422852 
	C280.115601,429.958038 277.743866,430.865112 275.571259,431.969543 
	C274.849274,432.336548 273.876862,432.262024 273.217621,432.693176 
	C267.867218,436.192139 262.542450,439.731476 257.251556,443.320007 
	C249.464722,448.601379 241.712341,453.933533 233.945282,459.244049 
	C227.085983,457.351288 223.667847,463.383850 218.358154,465.929260 
	C213.201904,461.433014 208.393433,456.868469 203.301773,452.126526 
	C201.456650,450.155212 199.894714,448.361237 198.503967,446.211304 
	C207.118591,438.904358 215.562042,431.953400 224.380981,424.978638 
	C227.060242,425.306519 229.355026,425.748291 231.670807,425.980133 
	C233.382477,426.151459 235.144882,426.242798 236.844650,426.037842 
	C249.104797,424.559601 255.882706,413.596100 266.376282,408.860199 
	C273.666840,405.569916 280.001831,400.207458 287.200653,396.656525 
	C295.080994,392.769409 303.408783,389.800385 310.173126,383.928650 
	C312.612274,387.926971 316.309448,388.537659 320.641205,388.248505 
	C325.101776,387.950745 329.599365,388.207367 334.541595,388.312256 
z"/>
<path fill="#088CBB" opacity="1.000000" stroke="none" 
	d="
M170.025894,418.210968 
	C172.249054,413.844086 174.460159,409.691040 176.718735,405.563965 
	C179.739105,400.044952 182.796265,394.546021 185.922836,388.716248 
	C193.747131,388.393982 201.486206,388.393982 210.018784,388.393982 
	C210.018784,382.328979 210.018784,376.636627 210.391449,370.642883 
	C212.526031,371.502319 214.192963,372.867279 216.085297,373.747955 
	C217.230011,374.280701 219.263519,374.688660 219.972244,374.078186 
	C224.009903,370.600494 226.449005,373.289093 228.975693,376.368927 
	C226.300720,382.491913 223.650665,388.245941 220.761993,394.232391 
	C213.081055,401.743713 205.766296,409.159576 198.152054,416.254028 
	C192.980530,421.072571 187.389023,425.440399 181.985321,430.009766 
	C178.194870,426.425049 174.404404,422.840363 170.333786,419.071411 
	C170.053619,418.887115 170.034988,418.436340 170.025894,418.210968 
z"/>
<path fill="#068FC1" opacity="1.000000" stroke="none" 
	d="
M182.161209,430.291443 
	C187.389023,425.440399 192.980530,421.072571 198.152054,416.254028 
	C205.766296,409.159576 213.081055,401.743713 221.175323,394.232697 
	C223.750946,394.579468 227.040405,394.736572 227.371017,395.807343 
	C229.174088,401.646759 232.979034,402.315613 237.930710,401.349548 
	C235.998672,404.542175 234.016205,407.315369 232.298828,410.244049 
	C229.444824,415.110992 226.760986,420.077728 224.005493,425.002441 
	C215.562042,431.953400 207.118591,438.904358 198.339188,445.930695 
	C192.781189,440.861755 187.559143,435.717438 182.161209,430.291443 
z"/>
<path fill="#0190C5" opacity="1.000000" stroke="none" 
	d="
M224.380981,424.978638 
	C226.760986,420.077728 229.444824,415.110992 232.298828,410.244049 
	C234.016205,407.315369 235.998672,404.542175 238.234863,401.201111 
	C239.046753,400.470520 239.531021,400.296356 239.918243,399.996765 
	C248.895676,393.050751 255.733109,383.173126 267.425598,379.932373 
	C267.852570,379.814056 268.119965,379.207367 268.541046,378.967560 
	C274.963379,375.309875 281.450714,371.762695 287.806305,367.993195 
	C290.406799,366.450836 292.729126,364.439392 295.178009,362.641357 
	C300.141235,369.501190 305.104492,376.361053 310.120422,383.574768 
	C303.408783,389.800385 295.080994,392.769409 287.200653,396.656525 
	C280.001831,400.207458 273.666840,405.569916 266.376282,408.860199 
	C255.882706,413.596100 249.104797,424.559601 236.844650,426.037842 
	C235.144882,426.242798 233.382477,426.151459 231.670807,425.980133 
	C229.355026,425.748291 227.060242,425.306519 224.380981,424.978638 
z"/>
<path fill="#018CBF" opacity="1.000000" stroke="none" 
	d="
M295.084839,362.317566 
	C292.729126,364.439392 290.406799,366.450836 287.806305,367.993195 
	C281.450714,371.762695 274.963379,375.309875 268.541046,378.967560 
	C268.119965,379.207367 267.852570,379.814056 267.425598,379.932373 
	C255.733109,383.173126 248.895676,393.050751 239.918243,399.996765 
	C239.531021,400.296356 239.046753,400.470520 238.303528,400.851562 
	C232.979034,402.315613 229.174088,401.646759 227.371017,395.807343 
	C227.040405,394.736572 223.750946,394.579468 221.413940,394.000305 
	C223.650665,388.245941 226.300720,382.491913 229.310303,376.295410 
	C230.256073,375.553925 230.930450,375.357452 231.415375,374.940582 
	C239.059174,368.369720 246.562515,361.628937 254.355362,355.240997 
	C257.953156,352.291779 262.067841,349.959564 266.017059,347.456299 
	C270.157196,344.832031 274.379913,342.337921 278.566528,339.786957 
	C284.041565,347.189240 289.516602,354.591492 295.084839,362.317566 
z"/>
<path fill="#0485B4" opacity="1.000000" stroke="none" 
	d="
M250.872192,302.043610 
	C254.910934,307.447601 258.949677,312.851562 262.770081,318.737915 
	C260.251099,321.106018 257.797943,322.835419 255.676239,324.904694 
	C246.596146,333.760590 239.457275,344.614410 228.297028,351.345093 
	C227.070679,352.084686 226.315811,353.569458 225.241150,354.603516 
	C220.238510,359.417175 215.200363,364.193970 210.174896,368.983948 
	C210.124634,358.298065 210.074356,347.612213 210.420837,336.380371 
	C220.816544,328.014771 230.924927,320.329224 240.758194,312.306458 
	C244.457886,309.287964 247.519623,305.487549 250.872192,302.043610 
z"/>
<path fill="#0288BA" opacity="1.000000" stroke="none" 
	d="
M210.113647,369.242676 
	C215.200363,364.193970 220.238510,359.417175 225.241150,354.603516 
	C226.315811,353.569458 227.070679,352.084686 228.297028,351.345093 
	C239.457275,344.614410 246.596146,333.760590 255.676239,324.904694 
	C257.797943,322.835419 260.251099,321.106018 262.869019,319.068909 
	C268.169556,325.685150 273.152802,332.452728 278.351288,339.503662 
	C274.379913,342.337921 270.157196,344.832031 266.017059,347.456299 
	C262.067841,349.959564 257.953156,352.291779 254.355362,355.240997 
	C246.562515,361.628937 239.059174,368.369720 231.415375,374.940582 
	C230.930450,375.357452 230.256073,375.553925 229.335220,375.926453 
	C226.449005,373.289093 224.009903,370.600494 219.972244,374.078186 
	C219.263519,374.688660 217.230011,374.280701 216.085297,373.747955 
	C214.192963,372.867279 212.526031,371.502319 210.465210,370.181091 
	C210.128342,369.847687 210.090378,369.674561 210.113647,369.242676 
z"/>
<path fill="#0580AD" opacity="1.000000" stroke="none" 
	d="
M250.787659,301.717773 
	C247.519623,305.487549 244.457886,309.287964 240.758194,312.306458 
	C230.924927,320.329224 220.816544,328.014771 210.493942,335.916718 
	C210.120819,322.974243 210.071335,309.949524 210.402771,296.346130 
	C217.924744,289.380615 225.065811,282.993744 232.206894,276.606903 
	C238.372299,284.868591 244.537704,293.130280 250.787659,301.717773 
z"/>
<path fill="#027BAA" opacity="1.000000" stroke="none" 
	d="
M232.113312,276.285126 
	C225.065811,282.993744 217.924744,289.380615 210.476898,295.882507 
	C210.170105,279.753296 210.170105,263.509064 210.170105,246.034729 
	C217.898788,256.621155 224.959244,266.292236 232.113312,276.285126 
z"/>
</svg>